# xmcd CD database file
#
# Track frame offsets:
#	150
#	11916
#	35791
#	49468
#	72090
#	83750
#	116696
#	127672
#	142081
#	167393
#	181535
#	201979
#
# Disc length: 2934 seconds
#
# Revision: 0
# Processed by: cddbd v1.5.1PL0 Copyright (c) Steve Scherf et al.
# Submitted via: CDex 1.51
#
DISCID=a30b740c
DTITLE=大滝詠一　−　シュガーベイブ - １９７４年０７月１１日　三ツ矢フォークメイツ
DYEAR=1900
DGENRE=Rock
TTITLE0=大滝詠一　 - 三ツ矢サイダー
TTITLE1=シュガーベイブ - 雨は手のひらいっぱい
TTITLE2=シュガーベイブ - 指切　　　
TTITLE3=シュガーベイブ - 今日はなんだか
TTITLE4=シュガーベイブ - ダーリン　
TTITLE5=大滝詠一　 - 海を渡る恋の汽車ポッポ
TTITLE6=大滝詠一　 - ウララカ　
TTITLE7=シュガーベイブ - 蜃気楼の街
TTITLE8=大滝詠一　 - 空飛ぶくじら
TTITLE9=大滝詠一　 - ウララカ（アンコール）
TTITLE10=シュガーベイブ - Ｓｈｏｗ　
TTITLE11=シュガーベイブ - 夏の終わりに
EXTD=
EXTT0=
EXTT1=
EXTT2=
EXTT3=
EXTT4=
EXTT5=
EXTT6=
EXTT7=
EXTT8=
EXTT9=
EXTT10=
EXTT11=
PLAYORDER=
